P3
10
10
256

192 192 192
192 192 192
192 192 192
192 192 192
192 192 192
0 0 153
192 192 192
192 192 192
192 192 192
192 192 192
192 192 192
192 192 192
192 192 192
192 192 192
0 0 153
0 0 153
192 192 192
192 192 192
192 192 192
192 192 192
192 192 192
192 192 192
192 192 192
0 0 153
0 0 153
0 0 153
192 192 192
192 192 192
0 0 153
192 192 192
0 0 153
0 0 153
0 0 153
0 0 153
0 0 153
0 0 153
192 192 192
192 192 192
192 192 192
0 0 153
0 0 153
0 0 153
0 0 153
0 0 153
0 0 153
0 0 153
192 192 192
192 192 192
192 192 192
0 0 153
0 0 153
0 0 153
0 0 153
0 0 153
0 0 153
0 0 153
192 192 192
192 192 192
192 192 192
0 0 153
0 0 153
0 0 153
0 0 153
0 0 153
0 0 153
0 0 153
192 192 192
192 192 192
192 192 192
0 0 153
192 192 192
192 192 192
192 192 192
0 0 153
0 0 153
0 0 153
192 192 192
192 192 192
0 0 153
192 192 192
192 192 192
192 192 192
192 192 192
192 192 192
0 0 153
0 0 153
192 192 192
192 192 192
192 192 192
192 192 192
192 192 192
192 192 192
192 192 192
192 192 192
192 192 192
0 0 153
192 192 192
192 192 192
192 192 192
192 192 192
