P3
10
10
256

63 63 63
63 63 63
63 63 63
63 63 63
63 63 63
255 255 102
63 63 63
63 63 63
63 63 63
63 63 63
63 63 63
63 63 63
63 63 63
63 63 63
255 255 102
255 255 102
63 63 63
63 63 63
63 63 63
63 63 63
63 63 63
63 63 63
63 63 63
255 255 102
255 255 102
255 255 102
63 63 63
63 63 63
255 255 102
63 63 63
255 255 102
255 255 102
255 255 102
255 255 102
255 255 102
255 255 102
63 63 63
63 63 63
63 63 63
255 255 102
255 255 102
255 255 102
255 255 102
255 255 102
255 255 102
255 255 102
63 63 63
63 63 63
63 63 63
255 255 102
255 255 102
255 255 102
255 255 102
255 255 102
255 255 102
255 255 102
63 63 63
63 63 63
63 63 63
255 255 102
255 255 102
255 255 102
255 255 102
255 255 102
255 255 102
255 255 102
63 63 63
63 63 63
63 63 63
255 255 102
63 63 63
63 63 63
63 63 63
255 255 102
255 255 102
255 255 102
63 63 63
63 63 63
255 255 102
63 63 63
63 63 63
63 63 63
63 63 63
63 63 63
255 255 102
255 255 102
63 63 63
63 63 63
63 63 63
63 63 63
63 63 63
63 63 63
63 63 63
63 63 63
63 63 63
255 255 102
63 63 63
63 63 63
63 63 63
63 63 63
